<svg width="412" height="917" viewBox="0 0 412 917" fill="none" xmlns="http://www.w3.org/2000/svg">
<g clip-path="url(#clip0_1_3)">
<rect width="412" height="917" fill="#FAEFCF"/>
<path d="M46.8252 613.463L53.7634 744.056L180.109 777.813L58.0514 824.767L64.9895 955.361L-17.3845 853.787L-139.442 900.741L-68.2944 791.01L-150.668 689.436L-24.3226 723.193L46.8252 613.463Z" fill="#E2BE5E"/>
<path d="M430.825 -153.537L437.763 -22.9439L564.109 10.8131L442.051 57.7673L448.989 188.361L366.616 86.7865L244.558 133.741L315.706 24.0102L233.332 -77.564L359.677 -43.8069L430.825 -153.537Z" fill="#C2E0BC"/>
<path d="M313.231 499.661L369.667 577.755L461.38 548.213L404.547 626.02L460.984 704.115L369.423 674.108L312.591 751.915L312.835 655.562L221.274 625.555L312.986 596.013L313.231 499.661Z" fill="#68C9D2"/>
<path d="M56.5531 7.66115L0.116326 85.7555L-91.5957 56.2134L-34.7635 134.02L-91.2002 212.115L0.360739 182.108L57.1929 259.915L56.9485 163.562L148.509 133.556L56.7975 104.013L56.5531 7.66115Z" fill="#F8C0BF"/>
<path d="M452.553 790.661L396.116 868.755L304.404 839.213L361.237 917.02L304.8 995.115L396.361 965.108L453.193 1042.91L452.949 946.562L544.509 916.555L452.797 887.013L452.553 790.661Z" fill="#F8C0BF"/>
</g>
<defs>
<clipPath id="clip0_1_3">
<rect width="412" height="917" fill="white"/>
</clipPath>
</defs>
</svg>
